<svg xmlns="http://www.w3.org/2000/svg" viewBox="0 0 16 16" fill="none" shape-rendering="crispEdges"><metadata xmlns:rdf="http://www.w3.org/1999/02/22-rdf-syntax-ns#" xmlns:xsi="http://www.w3.org/2001/XMLSchema-instance" xmlns:dc="http://purl.org/dc/elements/1.1/" xmlns:dcterms="http://purl.org/dc/terms/"><rdf:RDF><rdf:Description><dc:title>Pixel Art</dc:title><dc:creator>DiceBear</dc:creator><dc:source xsi:type="dcterms:URI">https://www.figma.com/community/file/1198754108850888330</dc:source><dcterms:license xsi:type="dcterms:URI">https://creativecommons.org/publicdomain/zero/1.0/</dcterms:license><dc:rights>„Pixel Art” (https://www.figma.com/community/file/1198754108850888330) by „DiceBear”, licensed under „CC0 1.0” (https://creativecommons.org/publicdomain/zero/1.0/)</dc:rights></rdf:Description></rdf:RDF></metadata><mask id="viewboxMask"><rect width="16" height="16" rx="0" ry="0" x="0" y="0" fill="#fff" /></mask><g mask="url(#viewboxMask)"><rect fill="#0d1117" width="16" height="16" x="0" y="0" /><path d="M4 2h8v1h1v3h1v2h-1v3h-1v1H9v1h4v1h1v2H2v-2h1v-1h4v-1H4v-1H3V8H2V6h1V3h1V2Z" fill="#a26d3d"/><path d="M4 2h8v1h1v3h1v2h-1v3h-1v1H4v-1H3V8H2V6h1V3h1V2Z" fill="#fff" fill-opacity=".1"/><path d="M4 13h2v1h1v1h2v-1h1v-1h2v3H4v-3Z" fill="#03396c"/><path fill="#fff" fill-opacity=".3" d="M10 14h1v1h-1zM11 13h1v1h-1zM9 15h1v1H9z"/><path fill="#fff" fill-opacity=".5" d="M9 14h1v1H9zM10 13h1v1h-1zM8 15h1v1H8z"/><path fill="#fff" fill-opacity=".3" d="M6 14H5v1h1zM5 13H4v1h1zM7 15H6v1h1z"/><path fill="#fff" fill-opacity=".5" d="M7 14H6v1h1zM6 13H5v1h1zM8 15H7v1h1z"/><path d="M10 5h1v2H9V6h1V5ZM5 5h1v2H4V6h1V5Z" fill="#fff"/><path fill="#76778b" d="M11 6h-1v1h1zM6 6H5v1h1z"/><path d="M6 10v1h1v1h2v-1h1v-1H9V9H7v1H6Z" fill="#e35d6a"/><path d="M7 10v1h2v-1H7Z" fill="#fff" fill-opacity=".2"/><path d="M11 2H5v1h1v1h4V3h1V2ZM3 3h1v2H3V3ZM13 3h-1v2h1V3Z" fill="#603a14"/></g></svg>